Coordinates
version=1
nRows=10
nColumns=40
inDegrees=yes

Units are S.I. units (second, meters, Newtons, ...)
Angles are in degrees.

endheader
time	pelvis_tilt	pelvis_list	pelvis_rotation	pelvis_tx	pelvis_ty	pelvis_tz	hip_flexion_r	hip_adduction_r	hip_rotation_r	knee_angle_r	knee_angle_r_beta	ankle_angle_r	subtalar_angle_r	mtp_angle_r	hip_flexion_l	hip_adduction_l	hip_rotation_l	knee_angle_l	knee_angle_l_beta	ankle_angle_l	subtalar_angle_l	mtp_angle_l	lumbar_extension	lumbar_bending	lumbar_rotation	arm_flex_r	arm_add_r	arm_rot_r	elbow_flex_r	pro_sup_r	wrist_flex_r	wrist_dev_r	arm_flex_l	arm_add_l	arm_rot_l	elbow_flex_l	pro_sup_l	wrist_flex_l	wrist_dev_l
     41.89828571	     -5.64671039	     -4.61725907	     -2.79696440	      0.91716204	      0.93344636	      0.42861395	     34.35291270	     -3.23241543	     -6.10625970	     50.11656686	     50.11656686	     -0.33509745	    -14.67378916	      1.54749506	     13.36264465	     -4.53441209	     -7.42558725	     18.46779830	     18.46779830	     12.93791497	     -7.35624290	     -2.93921629	    -10.71402893	      2.98277268	      0.52743090	     -4.14532191	    -17.82910583	      8.39239826	     27.99754391	     46.62949355	      0.00000000	      0.00000000	     12.18173012	    -18.16639100	    -11.20403985	     56.76536211	     46.72617863	      0.00000000	      0.00000000
     41.91157143	     -5.84538679	     -4.60978022	     -3.05496028	      0.91628255	      0.93321442	      0.42937220	     34.41824109	     -2.95866966	     -6.26047148	     46.15738088	     46.15738088	     -0.10239724	    -13.51998701	      1.57868338	     12.94386363	     -4.57607696	     -7.66560874	     18.13156756	     18.13156756	     13.17853820	     -7.24348832	     -3.07605102	    -10.69046226	      2.96667218	      0.39641928	     -5.53232471	    -17.91680340	      8.15543438	     27.64485193	     46.64411833	      0.00000000	      0.00000000	     12.70293160	    -18.71196828	    -11.69237720	     57.65061329	     46.78396643	      0.00000000	      0.00000000
     41.92485714	     -5.96356304	     -4.56415031	     -3.25349862	      0.91554414	      0.93301834	      0.43013485	     34.17757593	     -2.74553896	     -6.58860554	     41.87049935	     41.87049935	      0.20523890	    -12.09175397	      1.45332203	     12.43386580	     -4.56906162	     -7.91937466	     17.78220185	     17.78220185	     13.38177498	     -7.04658025	     -3.24523313	    -10.77950066	      2.95645941	      0.40573660	     -6.90315586	    -18.03514509	      7.79908200	     27.38147473	     46.66315431	      0.00000000	      0.00000000	     13.19299784	    -18.94706841	    -12.23714747	     58.84979680	     46.85021736	      0.00000000	      0.00000000
     41.93814286	     -6.03201003	     -4.43732665	     -3.51658170	      0.91504968	      0.93267211	      0.43104933	     33.62756897	     -2.60492536	     -7.10204207	     37.12769607	     37.12769607	     -0.56269827	    -10.59183554	     -1.77483133	     11.82404104	     -4.51102247	     -8.39159860	     17.39180500	     17.39180500	     13.47670712	     -6.66719109	     -4.02632006	    -10.99763359	      2.73228009	      0.21733922	     -8.56918107	    -17.80314991	      4.47418310	     28.50149043	     46.80035644	      0.00000000	      0.00000000	     12.70887463	    -18.83744714	    -14.63860054	     62.62592692	     47.11240040	      0.00000000	      0.00000000
     41.95142857	     -6.27212768	     -4.36542844	     -3.73371069	      0.91450362	      0.93212759	      0.43214953	     33.20385889	     -2.27088604	     -7.54435018	     32.44696641	     32.44696641	     -0.27133838	     -8.74581581	     -1.40667636	     11.44583494	     -4.48081966	     -8.54387791	     17.06882708	     17.06882708	     13.70262500	     -6.64592210	     -4.11480739	    -10.86673544	      2.69055842	      0.16657445	     -9.60751264	    -17.70243375	      4.26320512	     28.12040899	     46.81628573	      0.00000000	      0.00000000	     13.22374544	    -19.21069334	    -14.86088892	     63.17358443	     47.14525554	      0.00000000	      0.00000000
     41.96471429	     -6.32506925	     -4.24236339	     -3.91526791	      0.91430958	      0.93168875	      0.43318848	     32.42477464	     -2.05628987	     -8.30735577	     27.73340991	     27.73340991	      0.07076018	     -6.17375919	     -1.01358428	     10.80694322	     -4.37831239	     -8.74393998	     16.68061790	     16.68061790	     13.96084656	     -6.47516175	     -4.27799439	    -10.93527677	      2.56914513	      0.27874281	    -10.76455339	    -17.64791893	      3.87818121	     27.84069099	     46.83749900	      0.00000000	      0.00000000	     13.72580934	    -19.32400189	    -15.13655024	     64.17890370	     47.18971526	      0.00000000	      0.00000000
     41.97800000	     -6.37477611	     -3.94407965	     -4.15985383	      0.91436806	      0.93101520	      0.43437792	     31.73270649	     -2.02923668	     -9.28835881	     23.48682438	     23.48682438	      0.84417635	     -2.77426882	      0.52903530	     10.09600608	     -4.09030519	     -9.10101459	     16.17375111	     16.17375111	     14.01450576	     -6.33329571	     -4.91319895	    -11.04478582	      2.24301708	      0.39141925	    -12.08015098	    -17.08478887	      0.25317188	     28.62011926	     46.97781809	      0.00000000	      0.00000000	     13.63627714	    -19.33975812	    -16.02396706	     66.57477866	     47.33176966	      0.00000000	      0.00000000
     41.99128571	     -6.46308769	     -3.74792145	     -4.33933747	      0.91462092	      0.93023315	      0.43573066	     30.93857327	     -1.73552630	    -10.00166134	     19.29996648	     19.29996648	      1.07136971	     -0.29914693	      1.64711559	      9.46977615	     -3.91822104	     -9.29890553	     15.78096753	     15.78096753	     14.29372691	     -6.16661245	     -5.08488430	    -10.98451547	      2.06141944	      0.52448964	    -12.98946629	    -16.86826095	      0.00243700	     28.36313590	     46.98698160	      0.00000000	      0.00000000	     14.07080267	    -19.46211750	    -16.13109637	     67.32231058	     47.36001535	      0.00000000	      0.00000000
     42.00457143	     -6.47913970	     -3.46264678	     -4.51984724	      0.91518749	      0.92939219	      0.43711321	     30.19283737	     -1.58245359	    -10.87116034	     15.80323013	     15.80323013	      1.45524726	      2.46736213	      3.20618217	      8.70038660	     -3.63884776	     -9.59020254	     15.29494888	     15.29494888	     14.54812326	     -5.89621573	     -5.33165107	    -10.97404337	      1.80995774	      0.71030711	    -13.85244620	    -16.59898921	     -0.35707978	     28.35370892	     46.99249875	      0.00000000	      0.00000000	     14.32059865	    -19.50467435	    -16.27045968	     68.38733347	     47.39508561	      0.00000000	      0.00000000
     42.01785714	     -6.44751576	     -3.07142725	     -4.71782488	      0.91598004	      0.92846721	      0.43851011	     29.73587994	     -1.66994617	    -12.09013594	     13.49238954	     13.49238954	      2.50959445	      5.61442801	      6.35708059	      7.82034868	     -3.23395695	    -10.00191577	     14.70515360	     14.70515360	     14.68905978	     -5.54735640	     -5.81318234	    -10.98080260	      1.43807613	      0.85906798	    -14.65106005	    -16.21915710	     -1.26391985	     28.91418645	     46.99779940	      0.00000000	      0.00000000	     14.24852769	    -19.55656877	    -16.52948462	     70.11053719	     47.45487727	      0.00000000	      0.00000000
